<?xml version="1.0" encoding="utf-8"?>
<!-- Generator: Adobe Illustrator 16.0.0, SVG Export Plug-In . SVG Version: 6.00 Build 0)  -->
<!DOCTYPE svg PUBLIC "-//W3C//DTD SVG 1.1//EN" "http://www.w3.org/Graphics/SVG/1.1/DTD/svg11.dtd">
<svg version="1.1" id="Layer_1" xmlns="http://www.w3.org/2000/svg" xmlns:xlink="http://www.w3.org/1999/xlink" x="0px" y="0px"
	 width="1920px" height="345px" viewBox="0 0 1920 345" enable-background="new 0 0 1920 345" xml:space="preserve">
<g id="Layer_2" display="none">
	<rect display="inline" fill="#383759" width="1920" height="345"/>
</g>
<g display="none">
	<circle display="inline" fill="#7F7F7F" cx="110.667" cy="167.444" r="171.111"/>
	<circle display="inline" fill="#7F7F7F" cx="306.223" cy="210.777" r="127.778"/>
	<circle display="inline" fill="#7F7F7F" cx="502.889" cy="191.889" r="127.778"/>
	<circle display="inline" fill="#7F7F7F" cx="662.89" cy="180.777" r="127.778"/>
	<circle display="inline" fill="#7F7F7F" cx="848.222" cy="153" r="127.778"/>
	<circle display="inline" fill="#7F7F7F" cx="984.889" cy="198.556" r="127.777"/>
	<circle display="inline" fill="#7F7F7F" cx="1121.556" cy="167.444" r="127.777"/>
	<circle display="inline" fill="#7F7F7F" cx="1314.889" cy="215.278" r="127.777"/>
	<circle display="inline" fill="#7F7F7F" cx="1403.777" cy="191.889" r="127.777"/>
	<circle display="inline" fill="#7F7F7F" cx="1497.11" cy="180.777" r="127.777"/>
	<circle display="inline" fill="#7F7F7F" cx="1613.776" cy="210.777" r="127.777"/>
	<circle display="inline" fill="#7F7F7F" cx="1752.666" cy="221.889" r="127.777"/>
	<circle display="inline" fill="#7F7F7F" cx="1851.556" cy="167.444" r="127.777"/>
</g>
<g display="none">
	<circle display="inline" fill="#878787" cx="117.667" cy="249.444" r="171.111"/>
	<circle display="inline" fill="#878787" cx="313.223" cy="292.777" r="127.778"/>
	<circle display="inline" fill="#878787" cx="509.889" cy="273.889" r="127.778"/>
	<circle display="inline" fill="#878787" cx="669.89" cy="262.777" r="127.778"/>
	<circle display="inline" fill="#878787" cx="855.222" cy="235" r="127.778"/>
	<circle display="inline" fill="#878787" cx="991.889" cy="280.556" r="127.777"/>
	<circle display="inline" fill="#878787" cx="1128.556" cy="249.444" r="127.777"/>
	<circle display="inline" fill="#878787" cx="1321.889" cy="297.278" r="127.777"/>
	<circle display="inline" fill="#878787" cx="1410.777" cy="273.889" r="127.777"/>
	<circle display="inline" fill="#878787" cx="1504.11" cy="262.777" r="127.777"/>
	<circle display="inline" fill="#878787" cx="1620.776" cy="292.777" r="127.777"/>
	<circle display="inline" fill="#878787" cx="1759.666" cy="303.889" r="127.777"/>
	<circle display="inline" fill="#878787" cx="1858.556" cy="249.444" r="127.777"/>
</g>
<g id="Layer_3">
	<g>
		<path fill="#6B6B6B" d="M-83.197,72.986c95.765,0,173.398,77.633,173.398,173.398c0,95.766-77.633,173.398-173.398,173.398
			c-95.765,0-173.398-59.633-173.398-155.398C-256.595,168.619-178.962,72.986-83.197,72.986z"/>
		<circle fill="#6B6B6B" cx="121.826" cy="287.771" r="143.182"/>
		<circle fill="#6B6B6B" cx="320.689" cy="261.095" r="143.182"/>
		<path fill="#6B6B6B" d="M598.466,287.771c0,51.952-42.118,94.071-94.072,94.071c-51.955,0-94.072-42.119-94.072-94.071
			c0-51.957,38.118-94.072,90.072-94.072C552.349,193.699,598.466,235.814,598.466,287.771z"/>
		<circle fill="#6B6B6B" cx="645.249" cy="278.071" r="103.774"/>
		<circle fill="#6B6B6B" cx="811.373" cy="315.054" r="115.899"/>
		<circle fill="#6B6B6B" cx="982.953" cy="287.771" r="115.294"/>
		<circle fill="#6B6B6B" cx="1135.737" cy="308.992" r="115.293"/>
		<path fill="#6B6B6B" d="M1435.28,270.16c0,69.349-56.221,125.567-125.567,125.567c-69.354,0-125.571-56.22-125.571-125.567
			c0-69.354,56.219-125.571,125.571-125.571C1379.062,144.589,1435.28,200.807,1435.28,270.16z"/>
		<circle fill="#6B6B6B" cx="1457.107" cy="315.054" r="79.492"/>
		<circle fill="#6B6B6B" cx="1573.515" cy="302.353" r="79.493"/>
		<path fill="#6B6B6B" d="M1791.785,296.018c0,51.416-41.685,93.102-93.103,93.102c-51.422,0-93.104-41.686-93.104-93.102
			c0-51.424,41.682-93.104,93.104-93.104C1750.101,202.914,1791.785,244.594,1791.785,296.018z"/>
		<circle fill="#6B6B6B" cx="1853.435" cy="308.992" r="98.41"/>
	</g>
	<path fill="#FFFFFF" d="M-95.201,78.821c95.765,0,173.398,77.633,173.398,173.398c0,95.766-77.633,173.398-173.398,173.398
		c-95.765,0-173.398-59.633-173.398-155.398C-268.599,174.454-190.966,78.821-95.201,78.821z"/>
	<circle fill="#FFFFFF" cx="109.822" cy="293.605" r="143.182"/>
	<circle fill="#FFFFFF" cx="308.684" cy="266.93" r="143.182"/>
	<circle fill="#FFFFFF" cx="492.389" cy="304.216" r="104.683"/>
	<circle fill="#FFFFFF" cx="633.245" cy="283.905" r="103.774"/>
	<circle fill="#FFFFFF" cx="799.368" cy="320.89" r="115.9"/>
	<path fill="#FFFFFF" d="M1086.242,293.607c0,63.673-51.619,115.292-115.294,115.292c-63.676,0-115.294-51.619-115.294-115.292
		c0-63.678,51.618-115.295,115.294-115.295C1034.623,178.313,1086.242,229.93,1086.242,293.607z"/>
	<path fill="#FFFFFF" d="M1239.026,314.828c0,63.673-51.618,115.292-115.292,115.292c-63.679,0-115.296-51.619-115.296-115.292
		c0-63.68,51.617-115.295,115.296-115.295C1187.408,199.533,1239.026,251.148,1239.026,314.828z"/>
	<path fill="#FFFFFF" d="M1423.276,275.995c0,69.348-56.221,125.567-125.568,125.567c-69.354,0-125.572-56.221-125.572-125.567
		c0-69.354,56.221-125.571,125.572-125.571C1367.057,150.424,1423.276,206.643,1423.276,275.995z"/>
	<path fill="#FFFFFF" d="M1524.595,320.89c0,43.9-35.59,79.491-79.49,79.491c-43.904,0-79.492-35.591-79.492-79.491
		c0-43.905,35.588-79.493,79.492-79.493C1489.005,241.396,1524.595,276.984,1524.595,320.89z"/>
	<circle fill="#FFFFFF" cx="1561.511" cy="308.188" r="79.493"/>
	<path fill="#FFFFFF" d="M1779.781,301.854c0,51.416-41.686,93.102-93.103,93.102c-51.423,0-93.105-41.686-93.105-93.102
		c0-51.424,41.684-93.105,93.105-93.105C1738.097,208.747,1779.781,250.43,1779.781,301.854z"/>
	<path fill="#FFFFFF" d="M1939.839,314.828c0,54.347-44.061,98.406-98.406,98.406c-54.354,0-98.412-44.061-98.412-98.406
		c0-54.354,44.06-98.41,98.412-98.41C1895.779,216.418,1939.839,260.477,1939.839,314.828z"/>
	<path fill="#606161" d="M2141.219,269.068c0,73.165-59.313,132.479-132.48,132.479c-73.171,0-132.483-59.313-132.483-132.479
		c0-73.172,59.313-132.481,132.483-132.481C2081.904,136.587,2141.219,195.896,2141.219,269.068z"/>
	<path fill="#FFFFFF" d="M2125.021,275.995c0,73.165-59.313,132.479-132.479,132.479c-73.171,0-132.482-59.314-132.482-132.479
		c0-73.173,59.313-132.483,132.482-132.483C2065.708,143.512,2125.021,202.822,2125.021,275.995z"/>
</g>
<g display="none">
	<circle display="inline" fill="#FFFFFF" cx="94.668" cy="246.889" r="171.111"/>
	<circle display="inline" fill="#FFFFFF" cx="290.225" cy="290.222" r="127.778"/>
	<circle display="inline" fill="#FFFFFF" cx="486.891" cy="271.333" r="127.778"/>
	<circle display="inline" fill="#FFFFFF" cx="646.892" cy="260.222" r="127.778"/>
	<circle display="inline" fill="#FFFFFF" cx="832.224" cy="232.444" r="127.777"/>
	<circle display="inline" fill="#FFFFFF" cx="968.891" cy="278" r="127.777"/>
	<circle display="inline" fill="#FFFFFF" cx="1105.559" cy="246.889" r="127.777"/>
	<circle display="inline" fill="#FFFFFF" cx="1298.891" cy="294.723" r="127.777"/>
	<circle display="inline" fill="#FFFFFF" cx="1387.779" cy="271.333" r="127.777"/>
	<circle display="inline" fill="#FFFFFF" cx="1481.113" cy="260.222" r="127.777"/>
	<circle display="inline" fill="#FFFFFF" cx="1597.779" cy="290.222" r="127.777"/>
	<circle display="inline" fill="#FFFFFF" cx="1736.668" cy="301.333" r="127.777"/>
	<circle display="inline" fill="#FFFFFF" cx="1835.558" cy="246.889" r="127.777"/>
</g>
</svg>
